<svg width="470" height="340" viewBox="0 0 470 340" fill="none" xmlns="http://www.w3.org/2000/svg">
<path d="M0.98 164L4.648 145.632H9.828C10.6867 145.632 11.4707 145.716 12.18 145.884C12.8893 146.052 13.496 146.323 14 146.696C14.504 147.051 14.896 147.508 15.176 148.068C15.456 148.628 15.596 149.309 15.596 150.112C15.596 151.232 15.3907 152.203 14.98 153.024C14.588 153.845 14.0373 154.527 13.328 155.068C12.6187 155.591 11.7693 155.983 10.78 156.244C9.80933 156.487 8.736 156.608 7.56 156.608H4.62L3.164 164H0.98ZM4.984 154.844H7.644C9.548 154.844 10.9853 154.471 11.956 153.724C12.9453 152.977 13.44 151.867 13.44 150.392C13.44 149.328 13.0853 148.563 12.376 148.096C11.6667 147.611 10.64 147.368 9.296 147.368H6.468L4.984 154.844ZM15.8837 158.652C15.8837 157.364 16.0983 156.197 16.5277 155.152C16.957 154.088 17.5077 153.183 18.1797 152.436C18.8703 151.671 19.645 151.083 20.5037 150.672C21.381 150.261 22.2677 150.056 23.1637 150.056C23.929 150.056 24.573 150.187 25.0957 150.448C25.637 150.691 26.0757 151.036 26.4117 151.484C26.7477 151.913 26.9903 152.436 27.1397 153.052C27.289 153.649 27.3637 154.293 27.3637 154.984C27.3637 155.525 27.3077 156.039 27.1957 156.524C27.0837 157.009 26.981 157.383 26.8877 157.644H18.0397C17.909 158.521 17.9183 159.277 18.0677 159.912C18.217 160.528 18.4597 161.041 18.7957 161.452C19.1503 161.863 19.5797 162.161 20.0837 162.348C20.5877 162.535 21.1383 162.628 21.7357 162.628C22.277 162.628 22.809 162.516 23.3317 162.292C23.873 162.049 24.3583 161.769 24.7877 161.452L25.6277 162.88C25.0863 163.272 24.4423 163.617 23.6957 163.916C22.949 164.196 22.1277 164.336 21.2317 164.336C19.6077 164.336 18.3103 163.851 17.3397 162.88C16.369 161.891 15.8837 160.481 15.8837 158.652ZM18.2637 156.188H25.4037C25.441 155.964 25.469 155.74 25.4877 155.516C25.525 155.292 25.5437 155.049 25.5437 154.788C25.5437 154.396 25.497 154.023 25.4037 153.668C25.3103 153.295 25.161 152.968 24.9557 152.688C24.7503 152.408 24.4797 152.184 24.1437 152.016C23.8077 151.848 23.397 151.764 22.9117 151.764C22.4077 151.764 21.913 151.867 21.4277 152.072C20.961 152.277 20.5223 152.576 20.1117 152.968C19.701 153.36 19.3277 153.827 18.9917 154.368C18.6743 154.909 18.4317 155.516 18.2637 156.188ZM32.8921 164.336C32.4441 164.336 31.9868 164.271 31.5201 164.14C31.0721 164.009 30.6335 163.832 30.2041 163.608C29.7935 163.365 29.4108 163.085 29.0561 162.768C28.7201 162.451 28.4401 162.115 28.2161 161.76L29.5601 160.696C29.9895 161.293 30.5028 161.779 31.1001 162.152C31.6975 162.507 32.3508 162.684 33.0601 162.684C33.4521 162.684 33.8161 162.628 34.1521 162.516C34.5068 162.385 34.8148 162.217 35.0761 162.012C35.3561 161.807 35.5708 161.573 35.7201 161.312C35.8695 161.032 35.9441 160.733 35.9441 160.416C35.9441 160.173 35.8975 159.949 35.8041 159.744C35.7295 159.539 35.5988 159.343 35.4121 159.156C35.2255 158.951 34.9641 158.745 34.6281 158.54C34.3108 158.335 33.9188 158.101 33.4521 157.84C32.3881 157.261 31.6041 156.692 31.1001 156.132C30.5961 155.572 30.3441 154.9 30.3441 154.116C30.3441 153.519 30.4655 152.968 30.7081 152.464C30.9695 151.96 31.3055 151.531 31.7161 151.176C32.1455 150.821 32.6401 150.551 33.2001 150.364C33.7788 150.159 34.3855 150.056 35.0201 150.056C35.8601 150.056 36.6068 150.224 37.2601 150.56C37.9321 150.896 38.5201 151.335 39.0241 151.876L37.7921 153.08C37.4188 152.707 37.0081 152.389 36.5601 152.128C36.1121 151.867 35.5801 151.736 34.9641 151.736C34.2361 151.736 33.6201 151.951 33.1161 152.38C32.6308 152.791 32.3881 153.285 32.3881 153.864C32.3881 154.144 32.4535 154.396 32.5841 154.62C32.7148 154.844 32.8921 155.049 33.1161 155.236C33.3401 155.423 33.5921 155.6 33.8721 155.768C34.1708 155.936 34.4788 156.104 34.7961 156.272C35.4121 156.608 35.9161 156.935 36.3081 157.252C36.7188 157.551 37.0455 157.859 37.2881 158.176C37.5495 158.475 37.7268 158.783 37.8201 159.1C37.9321 159.417 37.9881 159.763 37.9881 160.136C37.9881 160.771 37.8575 161.349 37.5961 161.872C37.3535 162.395 36.9988 162.843 36.5321 163.216C36.0841 163.571 35.5428 163.841 34.9081 164.028C34.2921 164.233 33.6201 164.336 32.8921 164.336ZM48.6098 165.288L49.4498 161.956H49.3938C48.7218 162.647 47.9658 163.216 47.1258 163.664C46.3044 164.112 45.4644 164.336 44.6058 164.336C43.4111 164.336 42.4591 163.916 41.7498 163.076C41.0404 162.236 40.6858 161.013 40.6858 159.408C40.6858 158.101 40.8911 156.879 41.3018 155.74C41.7124 154.601 42.2631 153.612 42.9538 152.772C43.6444 151.932 44.4284 151.269 45.3058 150.784C46.1831 150.299 47.0978 150.056 48.0498 150.056C48.7778 150.056 49.4218 150.243 49.9818 150.616C50.5604 150.989 51.0084 151.484 51.3258 152.1H51.4378L51.9698 150.392H53.7058L49.8418 169.74H47.6858L48.6098 165.288ZM45.3898 162.544C46.0244 162.544 46.7244 162.339 47.4898 161.928C48.2551 161.499 48.9831 160.836 49.6738 159.94L50.9058 153.864C50.5138 153.155 50.0844 152.641 49.6178 152.324C49.1511 152.007 48.6564 151.848 48.1338 151.848C47.4618 151.848 46.8084 152.053 46.1738 152.464C45.5391 152.856 44.9791 153.388 44.4938 154.06C44.0084 154.732 43.6164 155.507 43.3178 156.384C43.0378 157.243 42.8978 158.139 42.8978 159.072C42.8978 160.248 43.1218 161.125 43.5698 161.704C44.0178 162.264 44.6244 162.544 45.3898 162.544ZM68.4928 150.392L65.7768 164H64.0128L64.2368 161.928H64.1248C63.3781 162.581 62.6128 163.151 61.8288 163.636C61.0635 164.103 60.2608 164.336 59.4208 164.336C58.2635 164.336 57.4328 164.037 56.9288 163.44C56.4435 162.824 56.2008 161.993 56.2008 160.948C56.2008 160.631 56.2101 160.332 56.2288 160.052C56.2661 159.772 56.3315 159.445 56.4248 159.072L58.1608 150.392H60.3168L58.6088 158.792C58.5341 159.165 58.4781 159.464 58.4408 159.688C58.4035 159.912 58.3848 160.145 58.3848 160.388C58.3848 161.079 58.5435 161.601 58.8608 161.956C59.1781 162.311 59.6915 162.488 60.4008 162.488C60.9421 162.488 61.5395 162.292 62.1928 161.9C62.8461 161.508 63.5928 160.883 64.4328 160.024L66.3648 150.392H68.4928ZM70.2938 164L73.0098 150.392H75.1658L72.4218 164H70.2938ZM74.8298 147.564C74.4564 147.564 74.1298 147.461 73.8498 147.256C73.5884 147.032 73.4578 146.715 73.4578 146.304C73.4578 145.837 73.6164 145.455 73.9338 145.156C74.2698 144.839 74.6524 144.68 75.0818 144.68C75.4551 144.68 75.7724 144.792 76.0338 145.016C76.3138 145.24 76.4538 145.557 76.4538 145.968C76.4538 146.435 76.2858 146.817 75.9498 147.116C75.6324 147.415 75.2591 147.564 74.8298 147.564ZM80.6343 164.336C80.1863 164.336 79.729 164.271 79.2623 164.14C78.8143 164.009 78.3756 163.832 77.9463 163.608C77.5356 163.365 77.153 163.085 76.7983 162.768C76.4623 162.451 76.1823 162.115 75.9583 161.76L77.3023 160.696C77.7316 161.293 78.245 161.779 78.8423 162.152C79.4396 162.507 80.093 162.684 80.8023 162.684C81.1943 162.684 81.5583 162.628 81.8943 162.516C82.249 162.385 82.557 162.217 82.8183 162.012C83.0983 161.807 83.313 161.573 83.4623 161.312C83.6116 161.032 83.6863 160.733 83.6863 160.416C83.6863 160.173 83.6396 159.949 83.5463 159.744C83.4716 159.539 83.341 159.343 83.1543 159.156C82.9676 158.951 82.7063 158.745 82.3703 158.54C82.053 158.335 81.661 158.101 81.1943 157.84C80.1303 157.261 79.3463 156.692 78.8423 156.132C78.3383 155.572 78.0863 154.9 78.0863 154.116C78.0863 153.519 78.2076 152.968 78.4503 152.464C78.7116 151.96 79.0476 151.531 79.4583 151.176C79.8876 150.821 80.3823 150.551 80.9423 150.364C81.521 150.159 82.1276 150.056 82.7623 150.056C83.6023 150.056 84.349 150.224 85.0023 150.56C85.6743 150.896 86.2623 151.335 86.7663 151.876L85.5343 153.08C85.161 152.707 84.7503 152.389 84.3023 152.128C83.8543 151.867 83.3223 151.736 82.7063 151.736C81.9783 151.736 81.3623 151.951 80.8583 152.38C80.373 152.791 80.1303 153.285 80.1303 153.864C80.1303 154.144 80.1956 154.396 80.3263 154.62C80.457 154.844 80.6343 155.049 80.8583 155.236C81.0823 155.423 81.3343 155.6 81.6143 155.768C81.913 155.936 82.221 156.104 82.5383 156.272C83.1543 156.608 83.6583 156.935 84.0503 157.252C84.461 157.551 84.7876 157.859 85.0303 158.176C85.2916 158.475 85.469 158.783 85.5623 159.1C85.6743 159.417 85.7303 159.763 85.7303 160.136C85.7303 160.771 85.5996 161.349 85.3383 161.872C85.0956 162.395 84.741 162.843 84.2743 163.216C83.8263 163.571 83.285 163.841 82.6503 164.028C82.0343 164.233 81.3623 164.336 80.6343 164.336ZM88.3719 158.652C88.3719 157.364 88.5866 156.197 89.0159 155.152C89.4453 154.088 89.9959 153.183 90.6679 152.436C91.3586 151.671 92.1333 151.083 92.9919 150.672C93.8693 150.261 94.7559 150.056 95.6519 150.056C96.4173 150.056 97.0613 150.187 97.5839 150.448C98.1253 150.691 98.5639 151.036 98.8999 151.484C99.2359 151.913 99.4786 152.436 99.6279 153.052C99.7773 153.649 99.8519 154.293 99.8519 154.984C99.8519 155.525 99.7959 156.039 99.6839 156.524C99.5719 157.009 99.4693 157.383 99.3759 157.644H90.5279C90.3973 158.521 90.4066 159.277 90.5559 159.912C90.7053 160.528 90.9479 161.041 91.2839 161.452C91.6386 161.863 92.0679 162.161 92.5719 162.348C93.0759 162.535 93.6266 162.628 94.2239 162.628C94.7653 162.628 95.2973 162.516 95.8199 162.292C96.3613 162.049 96.8466 161.769 97.2759 161.452L98.1159 162.88C97.5746 163.272 96.9306 163.617 96.1839 163.916C95.4373 164.196 94.6159 164.336 93.7199 164.336C92.0959 164.336 90.7986 163.851 89.8279 162.88C88.8573 161.891 88.3719 160.481 88.3719 158.652ZM90.7519 156.188H97.8919C97.9293 155.964 97.9573 155.74 97.9759 155.516C98.0133 155.292 98.0319 155.049 98.0319 154.788C98.0319 154.396 97.9853 154.023 97.8919 153.668C97.7986 153.295 97.6493 152.968 97.4439 152.688C97.2386 152.408 96.9679 152.184 96.6319 152.016C96.2959 151.848 95.8853 151.764 95.3999 151.764C94.8959 151.764 94.4013 151.867 93.9159 152.072C93.4493 152.277 93.0106 152.576 92.5999 152.968C92.1893 153.36 91.8159 153.827 91.4799 154.368C91.1626 154.909 90.9199 155.516 90.7519 156.188ZM111.215 164.336C110.02 164.336 109.068 163.916 108.359 163.076C107.65 162.236 107.295 161.013 107.295 159.408C107.295 158.101 107.5 156.879 107.911 155.74C108.322 154.601 108.872 153.612 109.563 152.772C110.254 151.932 111.038 151.269 111.915 150.784C112.792 150.299 113.707 150.056 114.659 150.056C115.387 150.056 116.031 150.243 116.591 150.616C117.17 150.989 117.618 151.484 117.935 152.1H118.047L118.579 150.392H120.315L117.599 164H115.835L116.059 161.984H115.947C115.294 162.693 114.556 163.263 113.735 163.692C112.914 164.121 112.074 164.336 111.215 164.336ZM111.999 162.544C112.708 162.544 113.427 162.339 114.155 161.928C114.902 161.499 115.611 160.836 116.283 159.94L117.515 153.864C117.123 153.155 116.694 152.641 116.227 152.324C115.76 152.007 115.266 151.848 114.743 151.848C114.071 151.848 113.418 152.053 112.783 152.464C112.148 152.856 111.588 153.388 111.103 154.06C110.618 154.732 110.226 155.507 109.927 156.384C109.647 157.243 109.507 158.139 109.507 159.072C109.507 160.248 109.731 161.125 110.179 161.704C110.627 162.264 111.234 162.544 111.999 162.544ZM130.258 165.288L131.098 161.956H131.042C130.37 162.647 129.614 163.216 128.774 163.664C127.953 164.112 127.113 164.336 126.254 164.336C125.06 164.336 124.108 163.916 123.398 163.076C122.689 162.236 122.334 161.013 122.334 159.408C122.334 158.101 122.54 156.879 122.95 155.74C123.361 154.601 123.912 153.612 124.602 152.772C125.293 151.932 126.077 151.269 126.954 150.784C127.832 150.299 128.746 150.056 129.698 150.056C130.426 150.056 131.07 150.243 131.63 150.616C132.209 150.989 132.657 151.484 132.974 152.1H133.086L133.618 150.392H135.354L131.49 169.74H129.334L130.258 165.288ZM127.038 162.544C127.673 162.544 128.373 162.339 129.138 161.928C129.904 161.499 130.632 160.836 131.322 159.94L132.554 153.864C132.162 153.155 131.733 152.641 131.266 152.324C130.8 152.007 130.305 151.848 129.782 151.848C129.11 151.848 128.457 152.053 127.822 152.464C127.188 152.856 126.628 153.388 126.142 154.06C125.657 154.732 125.265 155.507 124.966 156.384C124.686 157.243 124.546 158.139 124.546 159.072C124.546 160.248 124.77 161.125 125.218 161.704C125.666 162.264 126.273 162.544 127.038 162.544ZM150.141 150.392L147.425 164H145.661L145.885 161.928H145.773C145.027 162.581 144.261 163.151 143.477 163.636C142.712 164.103 141.909 164.336 141.069 164.336C139.912 164.336 139.081 164.037 138.577 163.44C138.092 162.824 137.849 161.993 137.849 160.948C137.849 160.631 137.859 160.332 137.877 160.052C137.915 159.772 137.98 159.445 138.073 159.072L139.809 150.392H141.965L140.257 158.792C140.183 159.165 140.127 159.464 140.089 159.688C140.052 159.912 140.033 160.145 140.033 160.388C140.033 161.079 140.192 161.601 140.509 161.956C140.827 162.311 141.34 162.488 142.049 162.488C142.591 162.488 143.188 162.292 143.841 161.9C144.495 161.508 145.241 160.883 146.081 160.024L148.013 150.392H150.141ZM151.942 164L154.658 150.392H156.814L154.07 164H151.942ZM156.478 147.564C156.105 147.564 155.778 147.461 155.498 147.256C155.237 147.032 155.106 146.715 155.106 146.304C155.106 145.837 155.265 145.455 155.582 145.156C155.918 144.839 156.301 144.68 156.73 144.68C157.104 144.68 157.421 144.792 157.682 145.016C157.962 145.24 158.102 145.557 158.102 145.968C158.102 146.435 157.934 146.817 157.598 147.116C157.281 147.415 156.908 147.564 156.478 147.564ZM169.041 164.336C167.567 164.336 166.391 163.851 165.513 162.88C164.636 161.909 164.197 160.575 164.197 158.876C164.197 157.588 164.403 156.403 164.813 155.32C165.224 154.237 165.775 153.313 166.465 152.548C167.156 151.764 167.94 151.157 168.817 150.728C169.695 150.28 170.6 150.056 171.533 150.056C173.008 150.056 174.184 150.541 175.061 151.512C175.957 152.483 176.405 153.817 176.405 155.516C176.405 156.804 176.191 157.989 175.761 159.072C175.351 160.155 174.8 161.088 174.109 161.872C173.437 162.637 172.653 163.244 171.757 163.692C170.88 164.121 169.975 164.336 169.041 164.336ZM169.265 162.544C169.9 162.544 170.507 162.367 171.085 162.012C171.683 161.639 172.215 161.144 172.681 160.528C173.148 159.912 173.521 159.184 173.801 158.344C174.081 157.504 174.221 156.608 174.221 155.656C174.221 154.424 173.969 153.481 173.465 152.828C172.98 152.156 172.261 151.82 171.309 151.82C170.693 151.82 170.087 152.007 169.489 152.38C168.892 152.735 168.36 153.229 167.893 153.864C167.427 154.48 167.053 155.208 166.773 156.048C166.493 156.888 166.353 157.784 166.353 158.736C166.353 159.968 166.596 160.911 167.081 161.564C167.585 162.217 168.313 162.544 169.265 162.544Z" fill="#556367"/>
<path d="M26.52 184.12C26.48 184.88 26.34 185.68 26.1 186.52C25.9 187.32 25.64 188.06 25.32 188.74C25 189.38 24.66 189.92 24.3 190.36C23.94 190.8 23.6 191.02 23.28 191.02C22.84 190.98 22.58 190.68 22.5 190.12C22.5 190 22.54 189.82 22.62 189.58C22.74 189.3 22.86 189 22.98 188.68C23.1 188.36 23.2 188.04 23.28 187.72C23.4 187.4 23.46 187.12 23.46 186.88C23.46 186.32 23.32 185.86 23.04 185.5C22.8 185.1 22.46 184.9 22.02 184.9C20.42 184.9 19.2 185.9 18.36 187.9C17.52 189.9 17.1 192.84 17.1 196.72C17.1 197.12 17.12 197.36 17.16 197.44C18 197.4 18.74 197.38 19.38 197.38C20.06 197.34 20.72 197.32 21.36 197.32C21.4 197.4 21.42 197.56 21.42 197.8C21.42 198.16 21.34 198.42 21.18 198.58C20.26 198.78 19.52 198.96 18.96 199.12C18.44 199.24 18.04 199.36 17.76 199.48C17.48 199.6 17.3 199.74 17.22 199.9C17.18 200.02 17.16 200.2 17.16 200.44C17.16 200.76 17.16 201.08 17.16 201.4C17.2 201.72 17.22 202.12 17.22 202.6C17.22 205.96 16.3 208.66 14.46 210.7C12.66 212.74 10.14 213.92 6.9 214.24C6.34 214.2 5.76 214.04 5.16 213.76C4.56 213.48 3.98 213.12 3.42 212.68C2.9 212.24 2.44 211.74 2.04 211.18C1.64 210.66 1.36 210.12 1.2 209.56C1.2 208.04 1.52 206.6 2.16 205.24C2.8 203.84 3.66 202.62 4.74 201.58C5.86 200.5 7.16 199.64 8.64 199C10.16 198.32 11.8 197.92 13.56 197.8C13.56 196.8 13.46 195.82 13.26 194.86C13.06 193.9 12.84 192.98 12.6 192.1C12.4 191.18 12.2 190.3 12 189.46C11.8 188.58 11.7 187.72 11.7 186.88C11.7 185.8 11.92 184.74 12.36 183.7C12.8 182.62 13.38 181.64 14.1 180.76C14.82 179.84 15.66 179.06 16.62 178.42C17.58 177.78 18.58 177.34 19.62 177.1C20.06 177.22 20.64 177.58 21.36 178.18C22.12 178.74 22.86 179.38 23.58 180.1C24.3 180.82 24.94 181.56 25.5 182.32C26.06 183.04 26.4 183.64 26.52 184.12ZM6.72 211.48C7.68 211.08 8.58 210.5 9.42 209.74C10.3 208.98 11.06 208.12 11.7 207.16C12.34 206.2 12.84 205.18 13.2 204.1C13.6 203.02 13.8 201.96 13.8 200.92C13 201.04 12.12 201.42 11.16 202.06C10.2 202.66 9.3 203.4 8.46 204.28C7.62 205.12 6.92 206 6.36 206.92C5.8 207.84 5.52 208.64 5.52 209.32C5.52 210.2 5.92 210.92 6.72 211.48ZM48.0422 183.16C47.8822 185.64 47.4422 187.78 46.7222 189.58C46.0022 191.34 44.9622 192.9 43.6022 194.26C42.2822 195.58 40.6622 196.78 38.7422 197.86C36.8222 198.94 34.5822 199.98 32.0222 200.98C32.0222 201.22 32.0022 201.48 31.9622 201.76C31.9622 202 31.9622 202.26 31.9622 202.54C31.9622 203.06 32.0022 203.6 32.0822 204.16C32.1622 204.72 32.3022 205.24 32.5022 205.72C32.7022 206.2 32.9822 206.6 33.3422 206.92C33.7022 207.2 34.1622 207.34 34.7222 207.34C35.8022 207.34 36.8622 207.1 37.9022 206.62C38.9422 206.14 39.9222 205.56 40.8422 204.88C41.8022 204.16 42.6822 203.4 43.4822 202.6C44.3222 201.76 45.0622 201 45.7022 200.32C46.1022 200.68 46.4422 201.02 46.7222 201.34C44.9222 203.74 42.9422 205.74 40.7822 207.34C38.6622 208.9 36.6422 209.9 34.7222 210.34C31.9622 210.02 29.8022 209.02 28.2422 207.34C26.7222 205.62 25.9622 203.56 25.9622 201.16C25.9622 199.52 26.1822 197.86 26.6222 196.18C27.1022 194.46 27.7422 192.82 28.5422 191.26C29.3822 189.66 30.3422 188.16 31.4222 186.76C32.5422 185.36 33.7222 184.14 34.9622 183.1C36.2422 182.06 37.5422 181.24 38.8622 180.64C40.2222 180.04 41.5622 179.74 42.8822 179.74C44.7222 179.98 46.4422 181.12 48.0422 183.16ZM43.9022 185.14C42.8222 185.3 41.7022 185.74 40.5422 186.46C39.3822 187.18 38.2822 188.14 37.2422 189.34C36.2422 190.54 35.3222 191.94 34.4822 193.54C33.6422 195.14 32.9822 196.86 32.5022 198.7C35.7022 197.1 38.3622 195.14 40.4822 192.82C42.6022 190.46 43.7422 187.9 43.9022 185.14ZM67.14 206.68C66.38 206.04 65.86 205.24 65.58 204.28C65.34 203.32 65.22 202.5 65.22 201.82C65.22 200.98 65.32 200.26 65.52 199.66C65.36 199.66 65 199.98 64.44 200.62C63.88 201.26 63.26 202.02 62.58 202.9C61.94 203.78 61.3 204.64 60.66 205.48C60.02 206.32 59.54 206.94 59.22 207.34C58.7 207.9 58.2 208.34 57.72 208.66C57.28 208.98 56.92 209.16 56.64 209.2C56 209.16 55.32 209.02 54.6 208.78C53.92 208.58 53.26 208.28 52.62 207.88C52.02 207.48 51.48 207 51 206.44C50.56 205.88 50.26 205.24 50.1 204.52C50.1 203.4 50.12 202.48 50.16 201.76C50.24 201.04 50.38 200.26 50.58 199.42C50.94 197.9 51.46 196.18 52.14 194.26C52.86 192.34 53.68 190.46 54.6 188.62C55.52 186.74 56.54 185 57.66 183.4C58.82 181.76 60.04 180.48 61.32 179.56C61.68 179.56 62.1 179.6 62.58 179.68C63.06 179.72 63.54 179.82 64.02 179.98C64.54 180.14 65.02 180.34 65.46 180.58C65.94 180.78 66.34 181.06 66.66 181.42C66.3 181.82 65.38 183.16 63.9 185.44C62.46 187.72 60.84 191 59.04 195.28C58.84 195.72 58.6 196.36 58.32 197.2C58.04 198.04 57.76 198.92 57.48 199.84C57.2 200.76 56.96 201.66 56.76 202.54C56.6 203.42 56.52 204.12 56.52 204.64C56.52 204.96 56.56 205.2 56.64 205.36C56.76 205.52 56.86 205.64 56.94 205.72C57.54 205.48 58.3 204.82 59.22 203.74C60.14 202.66 61.42 201 63.06 198.76C63.46 198.2 63.92 197.56 64.44 196.84C65 196.12 65.56 195.36 66.12 194.56C66.68 193.72 67.2 192.86 67.68 191.98C68.2 191.1 68.62 190.22 68.94 189.34C69.1 188.86 69.3 188.3 69.54 187.66C69.82 186.98 70.14 186.28 70.5 185.56C70.9 184.84 71.34 184.12 71.82 183.4C72.34 182.64 72.94 181.94 73.62 181.3C74.14 181.3 74.7 181.36 75.3 181.48C75.9 181.6 76.46 181.76 76.98 181.96C77.54 182.12 78.02 182.32 78.42 182.56C78.82 182.76 79.12 182.98 79.32 183.22C78.6 184.98 77.8 186.72 76.92 188.44C76.04 190.16 75.22 191.86 74.46 193.54C73.7 195.18 73.06 196.82 72.54 198.46C72.02 200.1 71.76 201.7 71.76 203.26C71.76 204.1 71.82 204.84 71.94 205.48C72.1 206.08 72.26 206.6 72.42 207.04C72.58 207.44 72.72 207.78 72.84 208.06C73 208.34 73.08 208.58 73.08 208.78C73.08 208.82 73.04 208.88 72.96 208.96C72.92 209 72.88 209.02 72.84 209.02C72.56 209.02 72.2 208.96 71.76 208.84C71.32 208.72 70.82 208.54 70.26 208.3C69.74 208.1 69.2 207.86 68.64 207.58C68.12 207.3 67.62 207 67.14 206.68ZM98.0653 186.76C98.0653 186.04 98.1053 185.36 98.1853 184.72C98.3053 184.08 98.5253 183.54 98.8453 183.1C99.1653 182.62 99.6053 182.26 100.165 182.02C100.725 181.74 101.465 181.6 102.385 181.6C102.945 181.6 103.565 181.66 104.245 181.78C104.965 181.9 105.485 182.12 105.805 182.44C105.645 183.12 105.505 183.72 105.385 184.24C105.305 184.76 105.225 185.34 105.145 185.98C105.105 186.58 105.065 187.32 105.025 188.2C104.985 189.04 104.945 190.14 104.905 191.5C104.825 194.22 104.685 196.66 104.485 198.82C104.325 200.94 103.925 203.06 103.285 205.18C103.285 205.34 103.345 205.42 103.465 205.42C104.065 204.98 104.745 204.34 105.505 203.5C106.265 202.66 107.065 201.72 107.905 200.68C108.745 199.6 109.585 198.46 110.425 197.26C111.265 196.06 112.045 194.88 112.765 193.72C113.725 192.04 114.785 189.94 115.945 187.42C117.105 184.9 118.065 182.2 118.825 179.32C119.065 179.32 119.365 179.38 119.725 179.5C120.125 179.58 120.505 179.7 120.865 179.86C121.265 179.98 121.605 180.12 121.885 180.28C122.205 180.44 122.425 180.58 122.545 180.7C122.465 182.42 122.045 184.18 121.285 185.98C120.565 187.78 119.685 189.52 118.645 191.2C117.605 192.88 116.505 194.46 115.345 195.94C114.185 197.42 113.125 198.7 112.165 199.78C110.245 202.02 108.305 204.02 106.345 205.78C104.425 207.54 102.125 209.24 99.4453 210.88C98.4053 210.48 97.5853 209.94 96.9853 209.26C96.3853 208.62 96.0853 207.94 96.0853 207.22C96.0853 206.74 96.1853 206.2 96.3853 205.6C96.6253 204.96 96.8853 204.16 97.1653 203.2C97.4453 202.2 97.6853 200.96 97.8853 199.48C98.1253 198 98.2453 196.12 98.2453 193.84C98.2453 192.52 98.2053 191.2 98.1253 189.88C98.0853 188.52 98.0653 187.48 98.0653 186.76ZM143.14 183.16C142.98 185.64 142.54 187.78 141.82 189.58C141.1 191.34 140.06 192.9 138.7 194.26C137.38 195.58 135.76 196.78 133.84 197.86C131.92 198.94 129.68 199.98 127.12 200.98C127.12 201.22 127.1 201.48 127.06 201.76C127.06 202 127.06 202.26 127.06 202.54C127.06 203.06 127.1 203.6 127.18 204.16C127.26 204.72 127.4 205.24 127.6 205.72C127.8 206.2 128.08 206.6 128.44 206.92C128.8 207.2 129.26 207.34 129.82 207.34C130.9 207.34 131.96 207.1 133 206.62C134.04 206.14 135.02 205.56 135.94 204.88C136.9 204.16 137.78 203.4 138.58 202.6C139.42 201.76 140.16 201 140.8 200.32C141.2 200.68 141.54 201.02 141.82 201.34C140.02 203.74 138.04 205.74 135.88 207.34C133.76 208.9 131.74 209.9 129.82 210.34C127.06 210.02 124.9 209.02 123.34 207.34C121.82 205.62 121.06 203.56 121.06 201.16C121.06 199.52 121.28 197.86 121.72 196.18C122.2 194.46 122.84 192.82 123.64 191.26C124.48 189.66 125.44 188.16 126.52 186.76C127.64 185.36 128.82 184.14 130.06 183.1C131.34 182.06 132.64 181.24 133.96 180.64C135.32 180.04 136.66 179.74 137.98 179.74C139.82 179.98 141.54 181.12 143.14 183.16ZM139 185.14C137.92 185.3 136.8 185.74 135.64 186.46C134.48 187.18 133.38 188.14 132.34 189.34C131.34 190.54 130.42 191.94 129.58 193.54C128.74 195.14 128.08 196.86 127.6 198.7C130.8 197.1 133.46 195.14 135.58 192.82C137.7 190.46 138.84 187.9 139 185.14ZM145.918 204.64C145.918 204.28 145.938 203.82 145.978 203.26C146.058 202.7 146.178 201.98 146.338 201.1C146.498 200.22 146.698 199.16 146.938 197.92C147.218 196.64 147.538 195.12 147.898 193.36C147.978 193 148.138 192.38 148.378 191.5C148.618 190.62 148.938 189.68 149.338 188.68C149.778 187.64 150.318 186.68 150.958 185.8C151.598 184.88 152.378 184.2 153.298 183.76C153.978 183.84 154.878 184.22 155.998 184.9C157.158 185.54 158.138 186.44 158.938 187.6C157.178 189.68 155.838 191.82 154.918 194.02C154.038 196.22 153.198 198.62 152.398 201.22C151.958 202.62 151.558 203.82 151.198 204.82C150.878 205.82 150.718 206.8 150.718 207.76C150.718 208.48 150.698 209 150.658 209.32C150.658 209.64 150.558 209.8 150.358 209.8C150.238 209.8 149.938 209.7 149.458 209.5C148.978 209.3 148.478 208.98 147.958 208.54C147.438 208.14 146.958 207.62 146.518 206.98C146.118 206.34 145.918 205.56 145.918 204.64ZM166.498 167.2C166.898 167.44 167.298 167.84 167.698 168.4C168.138 168.92 168.518 169.52 168.838 170.2C169.198 170.84 169.478 171.5 169.678 172.18C169.878 172.86 169.978 173.48 169.978 174.04C168.458 175.08 167.118 175.94 165.958 176.62C164.838 177.3 163.818 177.86 162.898 178.3C162.018 178.7 161.238 179 160.558 179.2C159.878 179.36 159.218 179.44 158.578 179.44C157.298 179.44 156.198 179.06 155.278 178.3C156.158 177.98 157.078 177.48 158.038 176.8C158.998 176.12 159.958 175.3 160.918 174.34C161.918 173.38 162.878 172.3 163.798 171.1C164.758 169.9 165.658 168.6 166.498 167.2ZM160.633 197.44C160.633 195.16 161.093 192.96 162.013 190.84C162.973 188.68 164.213 186.78 165.733 185.14C167.293 183.46 169.053 182.12 171.013 181.12C173.013 180.08 175.073 179.56 177.193 179.56C179.273 179.56 180.873 180.08 181.993 181.12C183.113 182.16 183.673 183.64 183.673 185.56C183.673 186.48 183.533 187.38 183.253 188.26C183.013 189.1 182.673 189.86 182.233 190.54C181.833 191.22 181.353 191.78 180.793 192.22C180.233 192.62 179.673 192.82 179.113 192.82C178.633 192.82 178.133 192.68 177.613 192.4C177.133 192.08 176.733 191.68 176.413 191.2C179.093 188.76 180.433 186.54 180.433 184.54C180.433 183.38 179.973 182.8 179.053 182.8C178.253 182.8 177.253 183.18 176.053 183.94C174.853 184.7 173.693 185.7 172.573 186.94C170.853 188.86 169.533 191 168.613 193.36C167.733 195.68 167.293 198.12 167.293 200.68C167.293 203.92 168.013 205.86 169.453 206.5C170.053 206.42 170.753 206.24 171.553 205.96C172.353 205.68 173.213 205.32 174.133 204.88C175.053 204.4 175.993 203.86 176.953 203.26C177.953 202.66 178.913 202.02 179.833 201.34C179.993 201.46 180.133 201.64 180.253 201.88C180.373 202.12 180.433 202.34 180.433 202.54C179.753 203.38 178.973 204.2 178.093 205C177.213 205.8 176.293 206.54 175.333 207.22C174.373 207.86 173.433 208.4 172.513 208.84C171.633 209.32 170.853 209.62 170.173 209.74C168.853 209.62 167.613 209.2 166.453 208.48C165.293 207.8 164.273 206.9 163.393 205.78C162.553 204.66 161.873 203.38 161.353 201.94C160.873 200.5 160.633 199 160.633 197.44ZM201.788 206.68C201.028 206.04 200.508 205.24 200.228 204.28C199.988 203.32 199.868 202.5 199.868 201.82C199.868 200.98 199.968 200.26 200.168 199.66C200.008 199.66 199.648 199.98 199.088 200.62C198.528 201.26 197.908 202.02 197.228 202.9C196.588 203.78 195.948 204.64 195.308 205.48C194.668 206.32 194.188 206.94 193.868 207.34C193.348 207.9 192.848 208.34 192.368 208.66C191.928 208.98 191.568 209.16 191.288 209.2C190.648 209.16 189.968 209.02 189.248 208.78C188.568 208.58 187.908 208.28 187.268 207.88C186.668 207.48 186.128 207 185.648 206.44C185.208 205.88 184.908 205.24 184.748 204.52C184.748 203.4 184.768 202.48 184.808 201.76C184.888 201.04 185.028 200.26 185.228 199.42C185.588 197.9 186.108 196.18 186.788 194.26C187.508 192.34 188.328 190.46 189.248 188.62C190.168 186.74 191.188 185 192.308 183.4C193.468 181.76 194.688 180.48 195.968 179.56C196.328 179.56 196.748 179.6 197.228 179.68C197.708 179.72 198.188 179.82 198.668 179.98C199.188 180.14 199.668 180.34 200.108 180.58C200.588 180.78 200.988 181.06 201.308 181.42C200.948 181.82 200.028 183.16 198.548 185.44C197.108 187.72 195.488 191 193.688 195.28C193.488 195.72 193.248 196.36 192.968 197.2C192.688 198.04 192.408 198.92 192.128 199.84C191.848 200.76 191.608 201.66 191.408 202.54C191.248 203.42 191.168 204.12 191.168 204.64C191.168 204.96 191.208 205.2 191.288 205.36C191.408 205.52 191.508 205.64 191.588 205.72C192.188 205.48 192.948 204.82 193.868 203.74C194.788 202.66 196.068 201 197.708 198.76C198.108 198.2 198.568 197.56 199.088 196.84C199.648 196.12 200.208 195.36 200.768 194.56C201.328 193.72 201.848 192.86 202.328 191.98C202.848 191.1 203.268 190.22 203.588 189.34C203.748 188.86 203.948 188.3 204.188 187.66C204.468 186.98 204.788 186.28 205.148 185.56C205.548 184.84 205.988 184.12 206.468 183.4C206.988 182.64 207.588 181.94 208.268 181.3C208.788 181.3 209.348 181.36 209.948 181.48C210.548 181.6 211.108 181.76 211.628 181.96C212.188 182.12 212.668 182.32 213.068 182.56C213.468 182.76 213.768 182.98 213.968 183.22C213.248 184.98 212.448 186.72 211.568 188.44C210.688 190.16 209.868 191.86 209.108 193.54C208.348 195.18 207.708 196.82 207.188 198.46C206.668 200.1 206.408 201.7 206.408 203.26C206.408 204.1 206.468 204.84 206.588 205.48C206.748 206.08 206.908 206.6 207.068 207.04C207.228 207.44 207.368 207.78 207.488 208.06C207.648 208.34 207.728 208.58 207.728 208.78C207.728 208.82 207.688 208.88 207.608 208.96C207.568 209 207.528 209.02 207.488 209.02C207.208 209.02 206.848 208.96 206.408 208.84C205.968 208.72 205.468 208.54 204.908 208.3C204.388 208.1 203.848 207.86 203.288 207.58C202.768 207.3 202.268 207 201.788 206.68ZM215.057 204.16C215.057 202.4 215.477 199.94 216.317 196.78C217.157 193.58 218.337 189.86 219.857 185.62C222.337 178.86 224.657 173.24 226.817 168.76C229.017 164.24 231.157 160.72 233.237 158.2C233.717 158.28 234.297 158.48 234.977 158.8C235.697 159.12 236.397 159.48 237.077 159.88C237.757 160.24 238.357 160.62 238.877 161.02C239.437 161.42 239.797 161.74 239.957 161.98C236.837 165.66 234.097 169.62 231.737 173.86C229.377 178.1 227.217 182.96 225.257 188.44C223.577 193.16 222.297 197.42 221.417 201.22C220.537 204.98 220.097 208.12 220.097 210.64C220.097 211.32 220.097 211.74 220.097 211.9C220.097 212.06 220.117 212.22 220.157 212.38C219.597 212.3 219.117 212.16 218.717 211.96C218.317 211.76 218.057 211.52 217.937 211.24C217.857 211.04 217.637 210.74 217.277 210.34C216.917 209.98 216.597 209.7 216.317 209.5C215.957 209.26 215.657 208.64 215.417 207.64C215.177 206.6 215.057 205.44 215.057 204.16ZM236.142 210.1C233.862 209.86 232.042 208.86 230.682 207.1C229.322 205.34 228.642 203.1 228.642 200.38C228.642 198.78 228.882 197.12 229.362 195.4C229.842 193.68 230.522 192.02 231.402 190.42C232.282 188.78 233.322 187.24 234.522 185.8C235.722 184.36 237.022 183.12 238.422 182.08C240.622 180.44 242.682 179.62 244.602 179.62C245.882 180.3 247.142 181.72 248.382 183.88C248.582 183.88 248.762 183.88 248.922 183.88C249.082 183.84 249.262 183.82 249.462 183.82C251.582 183.82 252.642 185.7 252.642 189.46C252.642 191.98 252.222 194.38 251.382 196.66C250.582 198.9 249.442 200.94 247.962 202.78C246.522 204.62 244.782 206.18 242.742 207.46C240.742 208.7 238.542 209.58 236.142 210.1ZM239.202 191.2C238.522 192.12 237.882 193.12 237.282 194.2C236.682 195.28 236.162 196.38 235.722 197.5C235.282 198.58 234.942 199.64 234.702 200.68C234.462 201.68 234.342 202.58 234.342 203.38C234.342 204.34 234.502 205.26 234.822 206.14C235.142 207.02 235.502 207.52 235.902 207.64C237.702 207.24 239.342 206.5 240.822 205.42C242.342 204.3 243.642 202.92 244.722 201.28C245.842 199.64 246.702 197.78 247.302 195.7C247.942 193.62 248.262 191.4 248.262 189.04C248.262 188 248.202 187.18 248.082 186.58C247.962 185.98 247.762 185.46 247.482 185.02C245.722 185.54 244.142 186.38 242.742 187.54C241.382 188.7 240.202 189.92 239.202 191.2Z" fill="#1B75BC"/>
</svg>
